<svg width="77" height="77" viewBox="0 0 77 77" fill="none" xmlns="http://www.w3.org/2000/svg">
<path fill-rule="evenodd" clip-rule="evenodd" d="M38 63C51.2548 63 62 52.2548 62 39C62 25.7452 51.2548 15 38 15C24.7452 15 14 25.7452 14 39C14 52.2548 24.7452 63 38 63ZM38 67C53.464 67 66 54.464 66 39C66 23.536 53.464 11 38 11C22.536 11 10 23.536 10 39C10 54.464 22.536 67 38 67Z" fill="black"/>
<circle cx="38.4999" cy="14.6034" r="12.6034" fill="#A5D297" stroke="black" stroke-width="4"/>
<circle cx="62.3967" cy="38.5001" r="12.6034" fill="#9EC4FB" stroke="black" stroke-width="4"/>
<circle cx="38.4999" cy="62.3965" r="12.6034" fill="#F3B2EA" stroke="black" stroke-width="4"/>
<circle cx="14.6034" cy="38.5001" r="12.6034" fill="#F3BA9B" stroke="black" stroke-width="4"/>
</svg>
